<svg id="call" xmlns="http://www.w3.org/2000/svg" width="20.862" height="20.862" viewBox="0 0 20.862 20.862">
  <path id="Icon_ionic-md-call" data-name="Icon ionic-md-call" d="M24.2,18.988a13.6,13.6,0,0,1-4.114-.637,1.084,1.084,0,0,0-1.159.29l-2.55,2.55a17.429,17.429,0,0,1-7.65-7.65l2.55-2.55a1.208,1.208,0,0,0,.29-1.159,12.6,12.6,0,0,1-.7-4.173A1.163,1.163,0,0,0,9.716,4.5H5.659A1.163,1.163,0,0,0,4.5,5.659a19.687,19.687,0,0,0,19.7,19.7A1.163,1.163,0,0,0,25.362,24.2V20.147A1.163,1.163,0,0,0,24.2,18.988Z" transform="translate(-4.5 -4.5)" fill="#e9901b"/>
</svg>
